<svg xmlns="http://www.w3.org/2000/svg" width="48" height="48" viewBox="0 0 48 48">
  <!-- Running frame 1: left leg forward, right back -->
  <g stroke="#1b2430" stroke-width="1.5" stroke-linejoin="round" stroke-linecap="round">
    <!-- Helmet -->
    <circle cx="24" cy="13.5" r="6.2" fill="#e8eff6" />
    <!-- Visor -->
    <ellipse cx="24" cy="13.5" rx="4.1" ry="2.4" fill="#c2e9ff" />
    <path d="M20.2 12.3c1.8-1 8-1 9.6 0" fill="none" opacity="0.35"/>

    <!-- Torso -->
    <path d="M18.8 18.5c-.8 0-1.5.6-1.6 1.4l-.6 4.6c-.2 1.7.7 3.3 2.2 4.1l3.1 1.7c1.3.7 2.9.7 4.2 0l3.1-1.7c1.5-.8 2.4-2.4 2.2-4.1l-.6-4.6c-.1-.8-.8-1.4-1.6-1.4h-9.4z" fill="#4ecdc4"/>
    <rect x="18.4" y="24.1" width="11.2" height="2.8" rx="1.2" fill="#2c3e50" />

    <!-- Arms -->
    <path d="M18.1 22.0l-3.3 2.6c-.8.6-.9 1.7-.4 2.5l1.3 2.1" fill="#4ecdc4" />
    <path d="M29.9 22.0l3.3 2.6c.8.6.9 1.7.4 2.5l-1.3 2.1" fill="#4ecdc4" />
    <circle cx="15.4" cy="30.4" r="1.7" fill="#ffd166" />
    <circle cx="32.6" cy="29.8" r="1.7" fill="#ffd166" />

    <!-- Legs -->
    <path d="M21.0 29.4l-2.6 4.1c-.5.8-.4 1.8.3 2.4l1.8 1.1" fill="#2b6777" />
    <path d="M27.0 29.6l2.6 5.6c.3.9-.2 1.8-1.0 2.1l-1.9.7" fill="#2b6777" />

    <!-- Boots -->
    <ellipse cx="18.4" cy="39.0" rx="3.2" ry="1.7" fill="#1f1f1f" />
    <ellipse cx="29.2" cy="39.6" rx="2.8" ry="1.6" fill="#1f1f1f" />

    <!-- Accents -->
    <circle cx="24" cy="22.4" r="1.1" fill="#ffd166" />
    <circle cx="26.6" cy="22.4" r="0.9" fill="#ff6b6b" />
  </g>
</svg>
