<svg xmlns="http://www.w3.org/2000/svg" width="48" height="48" viewBox="0 0 48 48">
  <!-- Running frame 4: opposite passing pose (mid) -->
  <g stroke="#1b2430" stroke-width="1.5" stroke-linejoin="round" stroke-linecap="round">
    <!-- Helmet -->
    <circle cx="24" cy="13.5" r="6.2" fill="#e8eff6" />
    <!-- Visor -->
    <ellipse cx="24" cy="13.5" rx="4.1" ry="2.4" fill="#c2e9ff" />
    <path d="M20.2 12.3c1.8-1 8-1 9.6 0" fill="none" opacity="0.35"/>

    <!-- Torso -->
    <path d="M18.8 18.5c-.8 0-1.5.6-1.6 1.4l-.6 4.6c-.2 1.7.7 3.3 2.2 4.1l3.1 1.7c1.3.7 2.9.7 4.2 0l3.1-1.7c1.5-.8 2.4-2.4 2.2-4.1l-.6-4.6c-.1-.8-.8-1.4-1.6-1.4h-9.4z" fill="#4ecdc4"/>
    <rect x="18.4" y="24.1" width="11.2" height="2.8" rx="1.2" fill="#2c3e50" />

    <!-- Arms (crossed opposite) -->
    <path d="M18.1 22.3l-3.2 2.4c-.7.7-.8 1.8-.2 2.6l1.2 2.0" fill="#4ecdc4" />
    <path d="M29.9 22.3l3.2 2.4c.7.7.8 1.8.2 2.6l-1.2 2.0" fill="#4ecdc4" />
    <circle cx="15.6" cy="29.9" r="1.7" fill="#ffd166" />
    <circle cx="32.4" cy="29.9" r="1.7" fill="#ffd166" />

    <!-- Legs (crossover, opposite) -->
    <path d="M25.6 29.4l2.4 5.2c.4.9-.1 1.8-.9 2.2l-1.8.8" fill="#2b6777" />
    <path d="M22.4 29.4l-2.4 5.2c-.4.9.1 1.8.9 2.2l1.8.8" fill="#2b6777" />

    <!-- Boots -->
    <ellipse cx="27.6" cy="39.0" rx="3.0" ry="1.7" fill="#1f1f1f" />
    <ellipse cx="20.4" cy="39.0" rx="3.0" ry="1.7" fill="#1f1f1f" />

    <!-- Accents -->
    <circle cx="24" cy="22.4" r="1.1" fill="#ffd166" />
    <circle cx="26.6" cy="22.4" r="0.9" fill="#ff6b6b" />
  </g>
</svg>
